<svg xmlns="http://www.w3.org/2000/svg" width="361" height="332" viewBox="0 0 361 332" version="1.1"><path d="" stroke="none" fill="#f4f4fc" fill-rule="evenodd"/><path d="M 25 166.479 L 25 262.131 62.250 261.772 L 99.500 261.413 108.500 258.660 L 117.500 255.907 123.730 253.015 L 129.959 250.124 134.730 246.901 L 139.500 243.678 144.904 239.130 L 150.308 234.582 156.191 227.179 L 162.074 219.776 167.010 209.638 L 171.946 199.500 174.161 190.500 L 176.376 181.500 176.371 168 L 176.367 154.500 175.152 148.320 L 173.937 142.139 171.884 135.820 L 169.832 129.500 166.305 122.500 L 162.779 115.500 158.500 109.475 L 154.220 103.450 147.350 96.975 L 140.480 90.500 134.578 86.589 L 128.676 82.678 120.588 79.266 L 112.500 75.853 104.500 73.774 L 96.500 71.695 60.750 71.261 L 25 70.827 25 166.479 M 189 90 L 189 109 216.500 109 L 244 109 244 185.500 L 244 262 264.500 262 L 285 262 285 185.500 L 285 109 312.500 109 L 340 109 340 90 L 340 71 264.500 71 L 189 71 189 90 M 66 167 L 66 224 76.790 224 L 87.580 224 93.540 222.470 L 99.500 220.939 104.838 218.353 L 110.176 215.767 116.338 209.984 L 122.500 204.201 125.947 198.477 L 129.394 192.753 131.229 187.317 L 133.064 181.881 134.006 174.454 L 134.947 167.028 133.934 158.945 L 132.920 150.862 130.828 145.181 L 128.736 139.500 124.239 132.671 L 119.741 125.842 114.680 121.841 L 109.618 117.840 104.988 115.494 L 100.357 113.147 94.284 111.574 L 88.211 110 77.106 110 L 66 110 66 167" stroke="none" fill="#fcfcfc" fill-rule="evenodd"/></svg>